<svg width="21" height="25" viewBox="0 0 21 25" fill="none" xmlns="http://www.w3.org/2000/svg">
<path id="Vector" d="M10.4341 13.8748C9.22822 13.8748 8.21143 13.464 7.38368 12.6423C6.55594 11.8207 6.14207 10.8115 6.14207 9.61456C6.14207 8.41764 6.55594 7.40838 7.38368 6.58676C8.21143 5.76515 9.22822 5.35435 10.4341 5.35435C11.6399 5.35435 12.6567 5.76515 13.4845 6.58676C14.3122 7.40838 14.7261 8.41764 14.7261 9.61456C14.7261 10.8115 14.3122 11.8207 13.4845 12.6423C12.6567 13.464 11.6399 13.8748 10.4341 13.8748ZM10.4341 11.4404C10.9655 11.4404 11.4049 11.2679 11.7523 10.923C12.0998 10.5782 12.2735 10.142 12.2735 9.61456C12.2735 9.0871 12.0998 8.65094 11.7523 8.30606C11.4049 7.96119 10.9655 7.78875 10.4341 7.78875C9.90268 7.78875 9.46326 7.96119 9.11581 8.30606C8.76837 8.65094 8.59464 9.0871 8.59464 9.61456C8.59464 10.142 8.76837 10.5782 9.11581 10.923C9.46326 11.2679 9.90268 11.4404 10.4341 11.4404ZM10.4341 24.8296C7.59317 24.1196 5.2479 22.5017 3.39825 19.976C1.5486 17.4503 0.623779 14.6457 0.623779 11.5621V4.13714L10.4341 0.485535L20.2444 4.13714V11.5621C20.2444 14.6457 19.3195 17.4503 17.4699 19.976C15.6202 22.5017 13.275 24.1196 10.4341 24.8296ZM10.4341 3.07209L3.07635 5.8108V11.5621C3.07635 12.6576 3.22964 13.7226 3.53621 14.7572C3.84278 15.7919 4.26176 16.7656 4.79315 17.6785C5.65155 17.2525 6.55083 16.9178 7.49098 16.6743C8.43114 16.4309 9.41217 16.3092 10.4341 16.3092C11.456 16.3092 12.437 16.4309 13.3772 16.6743C14.3173 16.9178 15.2166 17.2525 16.075 17.6785C16.6064 16.7656 17.0254 15.7919 17.3319 14.7572C17.6385 13.7226 17.7918 12.6576 17.7918 11.5621V5.8108L10.4341 3.07209ZM10.4341 18.7436C9.6983 18.7436 8.98297 18.8247 8.28807 18.987C7.59317 19.1493 6.92894 19.3725 6.29535 19.6565C6.88806 20.2651 7.53186 20.7925 8.22676 21.2388C8.92165 21.6852 9.65742 22.03 10.4341 22.2735C11.2107 22.03 11.9465 21.6852 12.6414 21.2388C13.3363 20.7925 13.9801 20.2651 14.5728 19.6565C13.9392 19.3725 13.275 19.1493 12.5801 18.987C11.8852 18.8247 11.1698 18.7436 10.4341 18.7436Z" fill="#E53529"/>
</svg>
