<svg width="30" height="30" viewBox="0 0 30 30" fill="none" xmlns="http://www.w3.org/2000/svg">
<path id="Vector" d="M11.0965 20.1737L14.8586 17.8907L18.6207 20.1737L17.6239 15.8971L20.9679 13.0032L16.5628 12.6495L14.8586 8.59809L13.1544 12.6495L8.74927 13.0032L12.0933 15.8971L11.0965 20.1737ZM14.8586 29.2412L10.5499 24.9968H4.5692V19.0161L0.324829 14.7074L4.5692 10.3987V4.41802H10.5499L14.8586 0.173645L19.1673 4.41802H25.148V10.3987L29.3924 14.7074L25.148 19.0161V24.9968H19.1673L14.8586 29.2412ZM14.8586 25.6399L18.074 22.4245H22.5756V17.9228L25.7911 14.7074L22.5756 11.492V6.99037H18.074L14.8586 3.77493L11.6432 6.99037H7.14155V11.492L3.92612 14.7074L7.14155 17.9228V22.4245H11.6432L14.8586 25.6399Z" fill="#DEE529"/>
</svg>
