<svg width="35" height="10" viewBox="0 0 35 10" fill="none" xmlns="http://www.w3.org/2000/svg">
<path id="Vector" d="M4.98415 0.785481C3.81848 0.785481 2.8206 1.19607 1.99051 2.01724C1.16041 2.83841 0.745361 3.82556 0.745361 4.97869C0.745361 6.13183 1.16041 7.11898 1.99051 7.94015C2.8206 8.76132 3.81848 9.17191 4.98415 9.17191C6.14982 9.17191 7.1477 8.76132 7.9778 7.94015C8.80789 7.11898 9.22294 6.13183 9.22294 4.97869C9.22294 3.82556 8.80789 2.83841 7.9778 2.01724C7.1477 1.19607 6.14982 0.785481 4.98415 0.785481ZM17.7005 0.785481C16.5349 0.785481 15.537 1.19607 14.7069 2.01724C13.8768 2.83841 13.4617 3.82556 13.4617 4.97869C13.4617 6.13183 13.8768 7.11898 14.7069 7.94015C15.537 8.76132 16.5349 9.17191 17.7005 9.17191C18.8662 9.17191 19.8641 8.76132 20.6942 7.94015C21.5243 7.11898 21.9393 6.13183 21.9393 4.97869C21.9393 3.82556 21.5243 2.83841 20.6942 2.01724C19.8641 1.19607 18.8662 0.785481 17.7005 0.785481ZM30.4169 0.785481C29.2512 0.785481 28.2533 1.19607 27.4233 2.01724C26.5932 2.83841 26.1781 3.82556 26.1781 4.97869C26.1781 6.13183 26.5932 7.11898 27.4233 7.94015C28.2533 8.76132 29.2512 9.17191 30.4169 9.17191C31.5826 9.17191 32.5804 8.76132 33.4105 7.94015C34.2406 7.11898 34.6557 6.13183 34.6557 4.97869C34.6557 3.82556 34.2406 2.83841 33.4105 2.01724C32.5804 1.19607 31.5826 0.785481 30.4169 0.785481Z" fill="white"/>
</svg>
