<svg width="28" height="27" viewBox="0 0 28 27" fill="none" xmlns="http://www.w3.org/2000/svg">
<path id="Vector" d="M10.0377 26.4244L7.68422 22.4934L3.22499 21.5107L3.65853 16.9654L0.623779 13.5257L3.65853 10.0861L3.22499 5.54081L7.68422 4.55805L10.0377 0.627014L14.2492 2.40827L18.4607 0.627014L20.8142 4.55805L25.2734 5.54081L24.8398 10.0861L27.8746 13.5257L24.8398 16.9654L25.2734 21.5107L20.8142 22.4934L18.4607 26.4244L14.2492 24.6432L10.0377 26.4244ZM11.0906 23.2919L14.2492 21.9406L17.4697 23.2919L19.2039 20.3436L22.6102 19.5451L22.3006 16.1055L24.5921 13.5257L22.3006 10.8846L22.6102 7.44491L19.2039 6.70784L17.4078 3.75956L14.2492 5.11085L11.0286 3.75956L9.29449 6.70784L5.88814 7.44491L6.19781 10.8846L3.90626 13.5257L6.19781 16.1055L5.88814 19.6066L9.29449 20.3436L11.0906 23.2919ZM12.9486 17.8867L19.9471 10.946L18.2129 9.16474L12.9486 14.3856L10.2854 11.8059L8.55129 13.5257L12.9486 17.8867Z" fill="#0F9015"/>
</svg>
