<svg width="42" height="32" viewBox="0 0 42 32" fill="none" xmlns="http://www.w3.org/2000/svg">
<path id="Vector" d="M31.9708 19.9467V14.1355H26.5014V10.2613H31.9708V4.45009H35.6171V10.2613H41.0865V14.1355H35.6171V19.9467H31.9708ZM15.5626 16.0726C13.5572 16.0726 11.8404 15.3139 10.4123 13.7965C8.98414 12.2791 8.27008 10.455 8.27008 8.32425C8.27008 6.19346 8.98414 4.36938 10.4123 2.852C11.8404 1.33462 13.5572 0.575928 15.5626 0.575928C17.5681 0.575928 19.2849 1.33462 20.713 2.852C22.1411 4.36938 22.8552 6.19346 22.8552 8.32425C22.8552 10.455 22.1411 12.2791 20.713 13.7965C19.2849 15.3139 17.5681 16.0726 15.5626 16.0726ZM0.977539 31.5692V26.1454C0.977539 25.0477 1.24341 24.0388 1.77516 23.1187C2.30691 22.1986 3.01337 21.4964 3.89456 21.0121C5.77846 20.0113 7.69276 19.2607 9.63743 18.7603C11.5821 18.2599 13.5572 18.0097 15.5626 18.0097C17.5681 18.0097 19.5431 18.2599 21.4878 18.7603C23.4325 19.2607 25.3468 20.0113 27.2307 21.0121C28.1119 21.4964 28.8183 22.1986 29.3501 23.1187C29.8818 24.0388 30.1477 25.0477 30.1477 26.1454V31.5692H0.977539ZM4.62381 27.6951H26.5014V26.1454C26.5014 25.7903 26.4179 25.4674 26.2508 25.1769C26.0836 24.8863 25.8633 24.6603 25.5899 24.4989C23.949 23.6272 22.293 22.9734 20.6218 22.5376C18.9506 22.1017 17.2642 21.8838 15.5626 21.8838C13.861 21.8838 12.1746 22.1017 10.5034 22.5376C8.83222 22.9734 7.1762 23.6272 5.53538 24.4989C5.26191 24.6603 5.04161 24.8863 4.87449 25.1769C4.70737 25.4674 4.62381 25.7903 4.62381 26.1454V27.6951ZM15.5626 12.1984C16.5653 12.1984 17.4237 11.8191 18.1378 11.0604C18.8519 10.3017 19.2089 9.38965 19.2089 8.32425C19.2089 7.25886 18.8519 6.34682 18.1378 5.58813C17.4237 4.82944 16.5653 4.45009 15.5626 4.45009C14.5599 4.45009 13.7015 4.82944 12.9874 5.58813C12.2734 6.34682 11.9164 7.25886 11.9164 8.32425C11.9164 9.38965 12.2734 10.3017 12.9874 11.0604C13.7015 11.8191 14.5599 12.1984 15.5626 12.1984Z" fill="white"/>
</svg>
