<svg width="28" height="29" viewBox="0 0 28 29" fill="none" xmlns="http://www.w3.org/2000/svg">
<path id="Vector" d="M13.9683 7.16054C10.0486 7.16054 6.88695 10.3229 6.88695 14.2435C6.88695 18.1641 10.0486 21.3265 13.9683 21.3265C17.8881 21.3265 21.0497 18.1641 21.0497 14.2435C21.0497 10.3229 17.8881 7.16054 13.9683 7.16054ZM13.9683 18.8484C11.4353 18.8484 9.36451 16.7833 9.36451 14.2435C9.36451 11.7038 11.4291 9.63866 13.9683 9.63866C16.5075 9.63866 18.5722 11.7038 18.5722 14.2435C18.5722 16.7833 16.5014 18.8484 13.9683 18.8484ZM22.9911 6.87081C22.9911 7.78932 22.2516 8.52289 21.3394 8.52289C20.4211 8.52289 19.6877 7.78316 19.6877 6.87081C19.6877 5.95847 20.4273 5.21874 21.3394 5.21874C22.2516 5.21874 22.9911 5.95847 22.9911 6.87081ZM27.6812 8.54755C27.5765 6.33451 27.0711 4.3742 25.4502 2.75911C23.8355 1.14402 21.8756 0.638532 19.663 0.527571C17.3827 0.398117 10.5478 0.398117 8.26748 0.527571C6.06109 0.632367 4.10123 1.13785 2.48033 2.75295C0.859437 4.36804 0.360226 6.32834 0.24929 8.54139C0.119865 10.8222 0.119865 17.6586 0.24929 19.9395C0.354063 22.1525 0.859437 24.1128 2.48033 25.7279C4.10123 27.343 6.05493 27.8485 8.26748 27.9595C10.5478 28.0889 17.3827 28.0889 19.663 27.9595C21.8756 27.8547 23.8355 27.3492 25.4502 25.7279C27.0649 24.1128 27.5703 22.1525 27.6812 19.9395C27.8107 17.6586 27.8107 10.8284 27.6812 8.54755ZM24.7353 22.3868C24.2546 23.595 23.3239 24.5259 22.1098 25.0129C20.2917 25.7341 15.9775 25.5677 13.9683 25.5677C11.9592 25.5677 7.63884 25.7279 5.82689 25.0129C4.61893 24.532 3.6883 23.6012 3.20141 22.3868C2.48033 20.5683 2.64674 16.2531 2.64674 14.2435C2.64674 12.2339 2.4865 7.91261 3.20141 6.10026C3.68214 4.89202 4.61276 3.96118 5.82689 3.47419C7.64501 2.75295 11.9592 2.91939 13.9683 2.91939C15.9775 2.91939 20.2978 2.75911 22.1098 3.47419C23.3178 3.95502 24.2484 4.88585 24.7353 6.10026C25.4564 7.91877 25.29 12.2339 25.29 14.2435C25.29 16.2531 25.4564 20.5744 24.7353 22.3868Z" fill="white"/>
</svg>
