<svg width="31" height="31" viewBox="0 0 31 31" fill="none" xmlns="http://www.w3.org/2000/svg">
<path id="Vector" d="M6.10647 18.5156H18.0662V15.5256H6.10647V18.5156ZM6.10647 14.0307H24.0461V11.0407H6.10647V14.0307ZM6.10647 9.54576H24.0461V6.55581H6.10647V9.54576ZM0.126587 30.4754V3.56587C0.126587 2.74364 0.419352 2.03975 1.00488 1.45422C1.59041 0.868693 2.2943 0.575928 3.11653 0.575928H27.0361C27.8583 0.575928 28.5622 0.868693 29.1477 1.45422C29.7333 2.03975 30.026 2.74364 30.026 3.56587V21.5055C30.026 22.3278 29.7333 23.0316 29.1477 23.6172C28.5622 24.2027 27.8583 24.4955 27.0361 24.4955H6.10647L0.126587 30.4754ZM4.83575 21.5055H27.0361V3.56587H3.11653V23.1874L4.83575 21.5055Z" fill="white"/>
</svg>
