<svg width="29" height="29" viewBox="0 0 29 29" fill="none" xmlns="http://www.w3.org/2000/svg">
<path id="Vector" d="M26.2419 0.430481H2.55624C1.47093 0.430481 0.589111 1.32463 0.589111 2.42227V26.0648C0.589111 27.1624 1.47093 28.0566 2.55624 28.0566H26.2419C27.3272 28.0566 28.2152 27.1624 28.2152 26.0648V2.42227C28.2152 1.32463 27.3272 0.430481 26.2419 0.430481ZM8.9386 24.11H4.84402V10.9259H8.94477V24.11H8.9386ZM6.89131 9.1253C5.57784 9.1253 4.5172 8.05849 4.5172 6.75118C4.5172 5.44388 5.57784 4.37706 6.89131 4.37706C8.19862 4.37706 9.26543 5.44388 9.26543 6.75118C9.26543 8.06465 8.20478 9.1253 6.89131 9.1253ZM24.2871 24.11H20.1925V17.6968C20.1925 16.1675 20.1617 14.2004 18.0651 14.2004C15.9315 14.2004 15.6046 15.8653 15.6046 17.5858V24.11H11.51V10.9259H15.4381V12.7266H15.4936C16.0425 11.6906 17.3806 10.5991 19.3724 10.5991C23.5163 10.5991 24.2871 13.3309 24.2871 16.8828V24.11Z" fill="white"/>
</svg>
